<?xml version="1.0" encoding="utf-8"?>
<!-- Generator: Adobe Illustrator 16.0.0, SVG Export Plug-In . SVG Version: 6.00 Build 0)  -->
<!DOCTYPE svg PUBLIC "-//W3C//DTD SVG 1.1//EN" "http://www.w3.org/Graphics/SVG/1.1/DTD/svg11.dtd">
<svg version="1.1" xmlns="http://www.w3.org/2000/svg" xmlns:xlink="http://www.w3.org/1999/xlink" x="0px" y="0px" width="792px"
	 height="612px" viewBox="0 0 792 612" enable-background="new 0 0 792 612" xml:space="preserve">
<g id="Layer_1">
	<g>
		<defs>
			<rect id="SVGID_1_" width="792" height="612"/>
		</defs>
		<clipPath id="SVGID_2_">
			<use xlink:href="#SVGID_1_"  overflow="visible"/>
		</clipPath>
	</g>
</g>
<g id="Layer_2">
	<path fill="#4C1F5B" d="M155.547,443.859l-0.07,0.02l9.137,35.242h227.179l-0.116-49.208l-14.764-17.706v-43.169l15.973-16.394
		v-72.579c6.39-1.172,9.251-6.743,9.287-13.478c0.041-7.614-6.098-13.821-13.712-13.862c-7.615-0.041-13.822,6.098-13.863,13.713
		c-0.036,6.785,1.839,12.438,8.288,13.622v70.551l-15.973,16.394v47.013l14.769,17.712l0.1,40.392H168.426l-4.462-16.232
		l15.286-42.639"/>
	<g>
		<g>
			<path fill="#4C1F5B" d="M584.782,465.804c-45.662,0-83.56-14.745-112.641-43.826c-29.337-29.328-44.212-67.356-44.212-113.027
				c0-45.663,14.745-83.562,43.826-112.643c29.337-29.336,67.364-44.211,113.026-44.211c25.325,0,48.624,3.814,69.249,11.337
				l0.279,0.105c12.66,4.896,25.002,11.997,36.682,21.107l5.967,4.654v60.297l-25.421-21.178
				c-9.533-7.941-20.111-14.386-31.441-19.155c-17.545-7.141-36.155-10.761-55.314-10.761c-32.481,0-58.377,10.105-79.166,30.894
				c-20.789,20.789-30.895,46.811-30.895,79.553c0,32.747,9.979,58.642,30.508,79.165c20.785,20.791,46.807,30.896,79.553,30.896
				c20.354,0,38.135-3.609,52.853-10.729c8.928-4.472,20.613-11.922,34.734-22.145l24.59-17.803v56.341L672.103,442.8
				c-16.574,12.137-38.865,19.601-66.229,22.166c-3.126,0.279-6.493,0.49-10.073,0.633
				C592.189,465.735,588.494,465.804,584.782,465.804z"/>
		</g>
		<g>
			<polygon fill="#4C1F5B" points="287.049,459.904 224.093,306.309 160.466,459.81 62.489,150.047 108.721,150.047 
				163.717,321.801 224.252,178.035 284.019,321.557 338.937,150.047 385.912,150.047 			"/>
		</g>
	</g>
	<circle fill="#4C1F5B" cx="388.5" cy="266.5" r="18"/>
</g>
</svg>
